  0
SECTION
  2
HEADER
  9
$ACADVER
  1
AC1009
  9
$INSBASE
 10
0.0
 20
0.0
 30
0.0
  9
$EXTMIN
 10
0.0
 20
0.0
 30
0.0
  9
$EXTMAX
 10
0.0
 20
0.0
 30
0.0
  0
ENDSEC
  0
SECTION
  2
TABLES
  0
TABLE
  2
VPORT
 70
0
  0
ENDTAB
  0
TABLE
  2
LTYPE
 70
1
  0
LTYPE
  2
CONTINUOUS
 70
0
  3
Solid line
 72
65
 73
0
 40
0.0
  0
ENDTAB
  0
TABLE
  2
LAYER
 70
1
  0
LAYER
  2
0
 70
64
 62
7
  6
continuous
  0
ENDTAB
  0
TABLE
  2
STYLE
 70
1
  0
STYLE
  2
STANDARD
 70
0
 40
0
 41
1.0
 50
0.0
 71
0
 42
1
 3
ARIAL.TTF
 4

  0
ENDTAB
  0
TABLE
  2
VIEW
 70
0
  0
ENDTAB
  0
ENDSEC
  0
SECTION
  2
BLOCKS
  0
BLOCK
  8
0
  2
SHAPE2DVIEW005
 70
0
 10
0.0
 20
0.0
 30
0.0
  3
SHAPE2DVIEW005
  0
LINE
  8
0
 62
0
 10
-178.3555723660586
 20
295.83651876470003
 30
0.0
 11
-155.99999999999002
 21
295.83651876473203
 31
0.0
  0
LINE
  8
0
 62
0
 10
-86.99999999999443
 20
6.5
 30
0.0
 11
-88.99999999999432
 21
6.5
 31
0.0
  0
LINE
  8
0
 62
0
 10
-86.99999999999443
 20
6.5
 30
0.0
 11
-86.99999999999443
 21
0.836518764836093
 31
0.0
  0
LINE
  8
0
 62
0
 10
-88.99999999999432
 20
9.0
 30
0.0
 11
-88.99999999999432
 21
6.5
 31
0.0
  0
LINE
  8
0
 62
0
 10
-86.99999999999443
 20
0.8365187648360924
 30
0.0
 11
-103.3555723656434
 21
0.8365187648126948
 31
0.0
  0
LINE
  8
0
 62
0
 10
-86.99999999999443
 20
9.0
 30
0.0
 11
-88.99999999999432
 21
9.0
 31
0.0
  0
LINE
  8
0
 62
0
 10
-103.3555723656434
 20
0.8365187648099948
 30
0.0
 11
-103.35557236563625
 21
-4.163481235190005
 31
0.0
  0
LINE
  8
0
 62
0
 10
-86.99999999999443
 20
22.0
 30
0.0
 11
-86.99999999999443
 21
9.0
 31
0.0
  0
LINE
  8
0
 62
0
 10
-103.35557236563339
 20
-4.163481235190005
 30
0.0
 11
-152.99999999999022
 21
-4.1634812352610435
 31
0.0
  0
LINE
  8
0
 62
0
 10
-83.99999999999463
 20
22.0
 30
0.0
 11
-86.99999999999443
 21
22.0
 31
0.0
  0
LINE
  8
0
 62
0
 10
-152.99999999999022
 20
0.0
 30
0.0
 11
-152.99999999999022
 21
-4.163481235261044
 31
0.0
  0
LINE
  8
0
 62
0
 10
-83.99999999999463
 20
22.0
 30
0.0
 11
-83.99999999999463
 21
9.0
 31
0.0
  0
LINE
  8
0
 62
0
 10
-152.99999999999022
 20
0.0
 30
0.0
 11
-155.99999999999002
 21
0.0
 31
0.0
  0
LINE
  8
0
 62
0
 10
-81.99999999999476
 20
9.0
 30
0.0
 11
-83.99999999999463
 21
9.0
 31
0.0
  0
LINE
  8
0
 62
0
 10
-155.99999999999002
 20
0.0
 30
0.0
 11
-155.99999999999002
 21
-4.163481235265336
 31
0.0
  0
LINE
  8
0
 62
0
 10
-81.99999999999476
 20
9.0
 30
0.0
 11
-81.99999999999476
 21
6.5
 31
0.0
  0
LINE
  8
0
 62
0
 10
-155.99999999999002
 20
-4.163481235265336
 30
0.0
 11
-178.35557236562857
 21
-4.163481235297326
 31
0.0
  0
LINE
  8
0
 62
0
 10
-81.99999999999476
 20
6.5
 30
0.0
 11
-83.99999999999463
 21
6.5
 31
0.0
  0
LINE
  8
0
 62
0
 10
-178.3555723656286
 20
-4.163481235289993
 30
0.0
 11
-178.35557236605777
 21
295.83651876470003
 31
0.0
  0
LINE
  8
0
 62
0
 10
-83.99999999999463
 20
6.5
 30
0.0
 11
-83.99999999999463
 21
0.8365187648403847
 31
0.0
  0
LINE
  8
0
 62
0
 10
-48.99999999999687
 20
0.8365187648904537
 30
0.0
 11
-83.99999999999463
 21
0.8365187648403841
 31
0.0
  0
LINE
  8
0
 62
0
 10
-155.99999999999002
 20
295.83651876473203
 30
0.0
 11
-155.99999999999002
 21
291.0
 31
0.0
  0
LINE
  8
0
 62
0
 10
-48.99999999999687
 20
6.5
 30
0.0
 11
-48.99999999999687
 21
0.8365187648904531
 31
0.0
  0
LINE
  8
0
 62
0
 10
-152.99999999999022
 20
291.0
 30
0.0
 11
-155.99999999999002
 21
291.0
 31
0.0
  0
LINE
  8
0
 62
0
 10
-48.99999999999687
 20
6.5
 30
0.0
 11
-50.99999999999674
 21
6.5
 31
0.0
  0
LINE
  8
0
 62
0
 10
-152.99999999999022
 20
295.8365187647363
 30
0.0
 11
-152.99999999999022
 21
291.0
 31
0.0
  0
LINE
  8
0
 62
0
 10
-50.99999999999674
 20
9.0
 30
0.0
 11
-50.99999999999674
 21
6.5
 31
0.0
  0
LINE
  8
0
 62
0
 10
-152.99999999999022
 20
295.8365187647363
 30
0.0
 11
-103.3555723660634
 21
295.83651876480735
 31
0.0
  0
LINE
  8
0
 62
0
 10
-48.99999999999687
 20
9.0
 30
0.0
 11
-50.99999999999674
 21
9.0
 31
0.0
  0
LINE
  8
0
 62
0
 10
-103.3555723660634
 20
295.8365187648
 30
0.0
 11
-103.35557236605625
 21
290.8365187648
 31
0.0
  0
LINE
  8
0
 62
0
 10
-48.99999999999687
 20
22.0
 30
0.0
 11
-48.99999999999687
 21
9.0
 31
0.0
  0
LINE
  8
0
 62
0
 10
-103.3555723660534
 20
290.8365187648
 30
0.0
 11
-93.99999999999399
 21
290.8365187640104
 31
0.0
  0
LINE
  8
0
 62
0
 10
-45.99999999999706
 20
22.0
 30
0.0
 11
-48.99999999999687
 21
22.0
 31
0.0
  0
LINE
  8
0
 62
0
 10
-93.99999999999399
 20
290.8365187640104
 30
0.0
 11
-93.99999999999399
 21
283.0
 31
0.0
  0
LINE
  8
0
 62
0
 10
-45.99999999999706
 20
22.0
 30
0.0
 11
-45.99999999999706
 21
9.0
 31
0.0
  0
LINE
  8
0
 62
0
 10
-93.999999999994
 20
283.0
 30
0.0
 11
-95.99999999999386
 21
283.0
 31
0.0
  0
LINE
  8
0
 62
0
 10
-43.999999999997186
 20
9.0
 30
0.0
 11
-45.99999999999706
 21
9.0
 31
0.0
  0
LINE
  8
0
 62
0
 10
-95.99999999999386
 20
283.0
 30
0.0
 11
-95.99999999999386
 21
280.5
 31
0.0
  0
LINE
  8
0
 62
0
 10
-43.999999999997186
 20
9.0
 30
0.0
 11
-43.999999999997186
 21
6.5
 31
0.0
  0
LINE
  8
0
 62
0
 10
-93.999999999994
 20
280.5
 30
0.0
 11
-95.99999999999386
 21
280.5
 31
0.0
  0
LINE
  8
0
 62
0
 10
-43.999999999997186
 20
6.5
 30
0.0
 11
-45.99999999999706
 21
6.5
 31
0.0
  0
LINE
  8
0
 62
0
 10
-93.99999999999399
 20
280.5
 30
0.0
 11
-93.99999999999399
 21
266.0
 31
0.0
  0
LINE
  8
0
 62
0
 10
-45.99999999999706
 20
6.5
 30
0.0
 11
-45.99999999999706
 21
0.8365187648947447
 31
0.0
  0
LINE
  8
0
 62
0
 10
-90.99999999999417
 20
266.0
 30
0.0
 11
-93.99999999999397
 21
266.0
 31
0.0
  0
LINE
  8
0
 62
0
 10
-28.355572365653188
 20
0.8365187649199868
 30
0.0
 11
-45.99999999999706
 21
0.8365187648947454
 31
0.0
  0
LINE
  8
0
 62
0
 10
-90.99999999999417
 20
280.5
 30
0.0
 11
-90.99999999999417
 21
266.0
 31
0.0
  0
LINE
  8
0
 62
0
 10
-28.355572365645187
 20
-4.163481235080013
 30
0.0
 11
-28.355572365652343
 21
0.8365187649199868
 31
0.0
  0
LINE
  8
0
 62
0
 10
-88.99999999999432
 20
280.5
 30
0.0
 11
-90.99999999999419
 21
280.5
 31
0.0
  0
LINE
  8
0
 62
0
 10
-9.99999999999936
 20
-4.163481235051026
 30
0.0
 11
-28.355572365645195
 21
-4.163481235077285
 31
0.0
  0
LINE
  8
0
 62
0
 10
-88.99999999999432
 20
283.0
 30
0.0
 11
-88.99999999999432
 21
280.5
 31
0.0
  0
LINE
  8
0
 62
0
 10
-9.99999999999936
 20
0.0
 30
0.0
 11
-9.99999999999936
 21
-4.163481235051026
 31
0.0
  0
LINE
  8
0
 62
0
 10
-88.99999999999432
 20
283.0
 30
0.0
 11
-90.99999999999419
 21
283.0
 31
0.0
  0
LINE
  8
0
 62
0
 10
-6.999999999999552
 20
0.0
 30
0.0
 11
-9.99999999999936
 21
0.0
 31
0.0
  0
LINE
  8
0
 62
0
 10
-90.99999999999417
 20
290.8365187637572
 30
0.0
 11
-90.99999999999417
 21
283.0
 31
0.0
  0
LINE
  8
0
 62
0
 10
-6.999999999999552
 20
0.0
 30
0.0
 11
-6.999999999999552
 21
-4.163481235046734
 31
0.0
  0
LINE
  8
0
 62
0
 10
-90.99999999999419
 20
290.8365187637572
 30
0.0
 11
-48.99999999999687
 21
290.8365187602124
 31
0.0
  0
LINE
  8
0
 62
0
 10
21.999999999998593
 20
-4.163481235005248
 30
0.0
 11
-6.999999999999552
 21
-4.163481235046734
 31
0.0
  0
LINE
  8
0
 62
0
 10
-48.99999999999687
 20
290.8365187602124
 30
0.0
 11
-48.99999999999687
 21
283.0
 31
0.0
  0
LINE
  8
0
 62
0
 10
21.999999999998593
 20
0.0
 30
0.0
 11
21.999999999998593
 21
-4.163481235005248
 31
0.0
  0
LINE
  8
0
 62
0
 10
-48.99999999999687
 20
283.0
 30
0.0
 11
-50.99999999999674
 21
283.0
 31
0.0
  0
LINE
  8
0
 62
0
 10
24.9999999999984
 20
0.0
 30
0.0
 11
21.999999999998593
 21
0.0
 31
0.0
  0
LINE
  8
0
 62
0
 10
-50.99999999999674
 20
283.0
 30
0.0
 11
-50.99999999999674
 21
280.5
 31
0.0
  0
LINE
  8
0
 62
0
 10
24.9999999999984
 20
0.0
 30
0.0
 11
24.9999999999984
 21
-4.163481235000956
 31
0.0
  0
LINE
  8
0
 62
0
 10
-48.99999999999687
 20
280.5
 30
0.0
 11
-50.99999999999674
 21
280.5
 31
0.0
  0
LINE
  8
0
 62
0
 10
46.64442763434702
 20
-4.163481234969993
 30
0.0
 11
24.9999999999984
 21
-4.1634812350009565
 31
0.0
  0
LINE
  8
0
 62
0
 10
-48.99999999999687
 20
280.5
 30
0.0
 11
-48.99999999999687
 21
266.0
 31
0.0
  0
LINE
  8
0
 62
0
 10
46.64442763434702
 20
0.8365187650300072
 30
0.0
 11
46.64442763434701
 21
-4.163481234969993
 31
0.0
  0
LINE
  8
0
 62
0
 10
-45.99999999999706
 20
266.0
 30
0.0
 11
-48.99999999999687
 21
266.0
 31
0.0
  0
LINE
  8
0
 62
0
 10
61.99999999999604
 20
0.8365187650300072
 30
0.0
 11
46.64442763434701
 21
0.8365187650300072
 31
0.0
  0
LINE
  8
0
 62
0
 10
-45.99999999999706
 20
280.5
 30
0.0
 11
-45.99999999999706
 21
266.0
 31
0.0
  0
LINE
  8
0
 62
0
 10
61.999999999996035
 20
6.5
 30
0.0
 11
61.999999999996035
 21
0.8365187650300072
 31
0.0
  0
LINE
  8
0
 62
0
 10
-43.999999999997186
 20
280.5
 30
0.0
 11
-45.99999999999706
 21
280.5
 31
0.0
  0
LINE
  8
0
 62
0
 10
61.99999999999603
 20
6.5
 30
0.0
 11
59.999999999996156
 21
6.5
 31
0.0
  0
LINE
  8
0
 62
0
 10
-43.999999999997186
 20
283.0
 30
0.0
 11
-43.999999999997186
 21
280.5
 31
0.0
  0
LINE
  8
0
 62
0
 10
59.99999999999616
 20
9.0
 30
0.0
 11
59.99999999999616
 21
6.5
 31
0.0
  0
LINE
  8
0
 62
0
 10
-43.999999999997186
 20
283.0
 30
0.0
 11
-45.99999999999706
 21
283.0
 31
0.0
  0
LINE
  8
0
 62
0
 10
61.99999999999603
 20
9.0
 30
0.0
 11
59.999999999996156
 21
9.0
 31
0.0
  0
LINE
  8
0
 62
0
 10
-45.99999999999706
 20
290.83651875995923
 30
0.0
 11
-45.99999999999706
 21
283.0
 31
0.0
  0
LINE
  8
0
 62
0
 10
61.999999999996035
 20
22.0
 30
0.0
 11
61.999999999996035
 21
9.0
 31
0.0
  0
LINE
  8
0
 62
0
 10
-45.99999999999706
 20
290.83651875995923
 30
0.0
 11
-28.35557236606718
 21
290.83651875847005
 31
0.0
  0
LINE
  8
0
 62
0
 10
64.99999999999585
 20
22.0
 30
0.0
 11
61.99999999999604
 21
22.0
 31
0.0
  0
LINE
  8
0
 62
0
 10
-28.35557236606719
 20
290.83651875847
 30
0.0
 11
-28.35557236564518
 21
295.83651875847
 31
0.0
  0
LINE
  8
0
 62
0
 10
64.99999999999585
 20
22.0
 30
0.0
 11
64.99999999999585
 21
9.0
 31
0.0
  0
LINE
  8
0
 62
0
 10
-28.355572365645187
 20
295.83651875847
 30
0.0
 11
-9.999999999999353
 21
295.83651875849625
 31
0.0
  0
LINE
  8
0
 62
0
 10
66.99999999999571
 20
9.0
 30
0.0
 11
64.99999999999584
 21
9.0
 31
0.0
  0
LINE
  8
0
 62
0
 10
-9.99999999999936
 20
295.83651875849625
 30
0.0
 11
-9.99999999999936
 21
291.0
 31
0.0
  0
LINE
  8
0
 62
0
 10
66.99999999999571
 20
9.0
 30
0.0
 11
66.99999999999571
 21
6.5
 31
0.0
  0
LINE
  8
0
 62
0
 10
-6.999999999999552
 20
291.0
 30
0.0
 11
-9.99999999999936
 21
291.0
 31
0.0
  0
LINE
  8
0
 62
0
 10
66.99999999999571
 20
6.5
 30
0.0
 11
64.99999999999584
 21
6.5
 31
0.0
  0
LINE
  8
0
 62
0
 10
-6.999999999999552
 20
295.8365187585005
 30
0.0
 11
-6.999999999999552
 21
291.0
 31
0.0
  0
LINE
  8
0
 62
0
 10
64.99999999999585
 20
6.5
 30
0.0
 11
64.99999999999585
 21
0.8365187650300072
 31
0.0
  0
LINE
  8
0
 62
0
 10
-6.999999999999545
 20
295.8365187585005
 30
0.0
 11
21.9999999999986
 21
295.836518758542
 31
0.0
  0
LINE
  8
0
 62
0
 10
102.99999999999342
 20
0.8365187650300072
 30
0.0
 11
64.99999999999585
 21
0.8365187650300072
 31
0.0
  0
LINE
  8
0
 62
0
 10
21.999999999998593
 20
295.836518758542
 30
0.0
 11
21.999999999998593
 21
291.0
 31
0.0
  0
LINE
  8
0
 62
0
 10
102.9999999999934
 20
6.5
 30
0.0
 11
102.9999999999934
 21
0.8365187650300072
 31
0.0
  0
LINE
  8
0
 62
0
 10
24.9999999999984
 20
291.0
 30
0.0
 11
21.999999999998593
 21
291.0
 31
0.0
  0
LINE
  8
0
 62
0
 10
102.9999999999934
 20
6.5
 30
0.0
 11
100.99999999999355
 21
6.5
 31
0.0
  0
LINE
  8
0
 62
0
 10
24.9999999999984
 20
295.83651875854633
 30
0.0
 11
24.9999999999984
 21
291.0
 31
0.0
  0
LINE
  8
0
 62
0
 10
100.99999999999355
 20
9.0
 30
0.0
 11
100.99999999999355
 21
6.5
 31
0.0
  0
LINE
  8
0
 62
0
 10
24.99999999999841
 20
295.83651875854633
 30
0.0
 11
46.644427634347025
 21
295.8365187585773
 31
0.0
  0
LINE
  8
0
 62
0
 10
102.9999999999934
 20
9.0
 30
0.0
 11
100.99999999999355
 21
9.0
 31
0.0
  0
LINE
  8
0
 62
0
 10
46.64442763434702
 20
295.83651875858
 30
0.0
 11
46.64442763435417
 21
290.83651875858
 31
0.0
  0
LINE
  8
0
 62
0
 10
102.9999999999934
 20
22.0
 30
0.0
 11
102.9999999999934
 21
9.0
 31
0.0
  0
LINE
  8
0
 62
0
 10
46.644427634357015
 20
290.83651875858
 30
0.0
 11
61.999999999996035
 21
290.8365187586019
 31
0.0
  0
LINE
  8
0
 62
0
 10
105.99999999999322
 20
22.0
 30
0.0
 11
102.9999999999934
 21
22.0
 31
0.0
  0
LINE
  8
0
 62
0
 10
61.999999999996035
 20
290.8365187586019
 30
0.0
 11
61.999999999996035
 21
283.0
 31
0.0
  0
LINE
  8
0
 62
0
 10
105.99999999999322
 20
22.0
 30
0.0
 11
105.99999999999322
 21
9.0
 31
0.0
  0
LINE
  8
0
 62
0
 10
61.99999999999603
 20
283.0
 30
0.0
 11
59.999999999996156
 21
283.0
 31
0.0
  0
LINE
  8
0
 62
0
 10
107.9999999999931
 20
9.0
 30
0.0
 11
105.99999999999322
 21
9.0
 31
0.0
  0
LINE
  8
0
 62
0
 10
59.99999999999616
 20
283.0
 30
0.0
 11
59.99999999999616
 21
280.5
 31
0.0
  0
LINE
  8
0
 62
0
 10
107.9999999999931
 20
9.0
 30
0.0
 11
107.9999999999931
 21
6.5
 31
0.0
  0
LINE
  8
0
 62
0
 10
61.99999999999603
 20
280.5
 30
0.0
 11
59.999999999996156
 21
280.5
 31
0.0
  0
LINE
  8
0
 62
0
 10
107.9999999999931
 20
6.5
 30
0.0
 11
105.99999999999322
 21
6.5
 31
0.0
  0
LINE
  8
0
 62
0
 10
61.999999999996035
 20
280.5
 30
0.0
 11
61.999999999996035
 21
266.0
 31
0.0
  0
LINE
  8
0
 62
0
 10
105.99999999999322
 20
6.5
 30
0.0
 11
105.99999999999322
 21
0.8365187650300072
 31
0.0
  0
LINE
  8
0
 62
0
 10
64.99999999999585
 20
266.0
 30
0.0
 11
61.99999999999604
 21
266.0
 31
0.0
  0
LINE
  8
0
 62
0
 10
121.64442763429223
 20
0.8365187650300072
 30
0.0
 11
105.99999999999322
 21
0.8365187650300072
 31
0.0
  0
LINE
  8
0
 62
0
 10
64.99999999999585
 20
280.5
 30
0.0
 11
64.99999999999585
 21
266.0
 31
0.0
  0
LINE
  8
0
 62
0
 10
121.64442763429223
 20
-4.163481234969993
 30
0.0
 11
121.64442763429223
 21
0.8365187650300072
 31
0.0
  0
LINE
  8
0
 62
0
 10
66.99999999999571
 20
280.5
 30
0.0
 11
64.99999999999584
 21
280.5
 31
0.0
  0
LINE
  8
0
 62
0
 10
169.99999999998914
 20
-4.163481237015619
 30
0.0
 11
121.64442763429224
 21
-4.163481234975023
 31
0.0
  0
LINE
  8
0
 62
0
 10
66.99999999999571
 20
283.0
 30
0.0
 11
66.99999999999571
 21
280.5
 31
0.0
  0
LINE
  8
0
 62
0
 10
169.99999999998914
 20
0.0
 30
0.0
 11
169.99999999998914
 21
-4.163481237015619
 31
0.0
  0
LINE
  8
0
 62
0
 10
66.99999999999571
 20
283.0
 30
0.0
 11
64.99999999999584
 21
283.0
 31
0.0
  0
LINE
  8
0
 62
0
 10
172.99999999998894
 20
0.0
 30
0.0
 11
169.99999999998914
 21
0.0
 31
0.0
  0
LINE
  8
0
 62
0
 10
64.99999999999585
 20
290.83651875860625
 30
0.0
 11
64.99999999999585
 21
283.0
 31
0.0
  0
LINE
  8
0
 62
0
 10
172.99999999998894
 20
0.0
 30
0.0
 11
172.99999999998894
 21
-4.163481237142218
 31
0.0
  0
LINE
  8
0
 62
0
 10
64.99999999999585
 20
290.83651875860625
 30
0.0
 11
102.9999999999934
 21
290.8365187586606
 31
0.0
  0
LINE
  8
0
 62
0
 10
196.64442763428744
 20
-4.163481238140008
 30
0.0
 11
172.99999999998894
 21
-4.163481237142218
 31
0.0
  0
LINE
  8
0
 62
0
 10
102.9999999999934
 20
290.8365187586606
 30
0.0
 11
102.9999999999934
 21
283.0
 31
0.0
  0
LINE
  8
0
 62
0
 10
196.64442763428744
 20
295.83651876185
 30
0.0
 11
196.64442763428747
 21
-4.16348123813998
 31
0.0
  0
LINE
  8
0
 62
0
 10
102.9999999999934
 20
283.0
 30
0.0
 11
100.99999999999355
 21
283.0
 31
0.0
  0
LINE
  8
0
 62
0
 10
172.99999999998894
 20
295.8365187608572
 30
0.0
 11
196.6444276342874
 21
295.836518761855
 31
0.0
  0
LINE
  8
0
 62
0
 10
100.99999999999355
 20
283.0
 30
0.0
 11
100.99999999999355
 21
280.5
 31
0.0
  0
LINE
  8
0
 62
0
 10
172.99999999998894
 20
295.8365187608572
 30
0.0
 11
172.99999999998894
 21
291.0
 31
0.0
  0
LINE
  8
0
 62
0
 10
102.9999999999934
 20
280.5
 30
0.0
 11
100.99999999999355
 21
280.5
 31
0.0
  0
LINE
  8
0
 62
0
 10
172.99999999998894
 20
291.0
 30
0.0
 11
169.99999999998914
 21
291.0
 31
0.0
  0
LINE
  8
0
 62
0
 10
102.9999999999934
 20
280.5
 30
0.0
 11
102.9999999999934
 21
266.0
 31
0.0
  0
LINE
  8
0
 62
0
 10
169.99999999998914
 20
295.8365187607306
 30
0.0
 11
169.99999999998914
 21
291.0
 31
0.0
  0
LINE
  8
0
 62
0
 10
105.99999999999322
 20
266.0
 30
0.0
 11
102.9999999999934
 21
266.0
 31
0.0
  0
LINE
  8
0
 62
0
 10
121.64442763429223
 20
295.83651875869
 30
0.0
 11
169.99999999998914
 21
295.8365187607306
 31
0.0
  0
LINE
  8
0
 62
0
 10
105.99999999999322
 20
280.5
 30
0.0
 11
105.99999999999322
 21
266.0
 31
0.0
  0
LINE
  8
0
 62
0
 10
121.64442763429223
 20
290.83651875869
 30
0.0
 11
121.64442763428507
 21
295.83651875869
 31
0.0
  0
LINE
  8
0
 62
0
 10
107.9999999999931
 20
280.5
 30
0.0
 11
105.99999999999322
 21
280.5
 31
0.0
  0
LINE
  8
0
 62
0
 10
105.99999999999322
 20
290.8365187586649
 30
0.0
 11
121.64442763429223
 21
290.8365187586873
 31
0.0
  0
LINE
  8
0
 62
0
 10
107.9999999999931
 20
283.0
 30
0.0
 11
107.9999999999931
 21
280.5
 31
0.0
  0
LINE
  8
0
 62
0
 10
105.99999999999322
 20
290.8365187586649
 30
0.0
 11
105.99999999999322
 21
283.0
 31
0.0
  0
LINE
  8
0
 62
0
 10
107.9999999999931
 20
283.0
 30
0.0
 11
105.99999999999322
 21
283.0
 31
0.0
  0
POLYLINE
  8
0
 62
0
 70
0
 66
1
 10
0.0
 20
0.0
 30
0.0
  0
VERTEX
  8
0
 10
33.999999999997826
 20
173.0
 30
0.0
  0
VERTEX
  8
0
 10
33.999999999997826
 20
176.0
 30
0.0
  0
VERTEX
  8
0
 10
33.999999999997826
 20
173.0
 30
0.0
  0
SEQEND
  8
0
  0
POLYLINE
  8
0
 62
0
 70
0
 66
1
 10
0.0
 20
0.0
 30
0.0
  0
VERTEX
  8
0
 10
33.999999999997826
 20
123.0
 30
0.0
  0
VERTEX
  8
0
 10
33.999999999997826
 20
126.0
 30
0.0
  0
VERTEX
  8
0
 10
33.999999999997826
 20
123.0
 30
0.0
  0
SEQEND
  8
0
  0
LINE
  8
0
 62
0
 10
194.99999999998755
 20
77.75181270940921
 30
0.0
 11
189.99999999998784
 21
77.75181270940921
 31
0.0
  0
LINE
  8
0
 62
0
 10
194.99999999998755
 20
77.75181270940921
 30
0.0
 11
194.99999999998755
 21
155.65262731209992
 31
0.0
  0
LINE
  8
0
 62
0
 10
189.99999999998786
 20
77.75181270940921
 30
0.0
 11
189.99999999998786
 21
155.65262731209992
 31
0.0
  0
LINE
  8
0
 62
0
 10
189.99999999998784
 20
155.65262731209992
 30
0.0
 11
194.99999999998755
 21
155.65262731209992
 31
0.0
  0
POLYLINE
  8
0
 62
0
 70
0
 66
1
 10
0.0
 20
0.0
 30
0.0
  0
VERTEX
  8
0
 10
-15.999999999998977
 20
123.0
 30
0.0
  0
VERTEX
  8
0
 10
-15.999999999998977
 20
126.0
 30
0.0
  0
VERTEX
  8
0
 10
-15.999999999998977
 20
123.0
 30
0.0
  0
SEQEND
  8
0
  0
POLYLINE
  8
0
 62
0
 70
0
 66
1
 10
0.0
 20
0.0
 30
0.0
  0
VERTEX
  8
0
 10
-15.999999999998977
 20
173.0
 30
0.0
  0
VERTEX
  8
0
 10
-15.999999999998977
 20
176.0
 30
0.0
  0
VERTEX
  8
0
 10
-15.999999999998977
 20
173.0
 30
0.0
  0
SEQEND
  8
0
  0
POLYLINE
  8
0
 62
0
 70
0
 66
1
 10
0.0
 20
0.0
 30
0.0
  0
VERTEX
  8
0
 10
173.99999999998886
 20
42.5
 30
0.0
  0
VERTEX
  8
0
 10
173.99999999998886
 20
45.5
 30
0.0
  0
VERTEX
  8
0
 10
173.99999999998886
 20
42.5
 30
0.0
  0
SEQEND
  8
0
  0
POLYLINE
  8
0
 62
0
 70
0
 66
1
 10
0.0
 20
0.0
 30
0.0
  0
VERTEX
  8
0
 10
150.99999999999034
 20
42.5
 30
0.0
  0
VERTEX
  8
0
 10
150.99999999999034
 20
45.5
 30
0.0
  0
VERTEX
  8
0
 10
150.99999999999034
 20
42.5
 30
0.0
  0
SEQEND
  8
0
  0
POLYLINE
  8
0
 62
0
 70
0
 66
1
 10
0.0
 20
0.0
 30
0.0
  0
VERTEX
  8
0
 10
150.99999999999034
 20
275.5
 30
0.0
  0
VERTEX
  8
0
 10
150.99999999999034
 20
278.5
 30
0.0
  0
VERTEX
  8
0
 10
150.99999999999034
 20
275.5
 30
0.0
  0
SEQEND
  8
0
  0
POLYLINE
  8
0
 62
0
 70
0
 66
1
 10
0.0
 20
0.0
 30
0.0
  0
VERTEX
  8
0
 10
150.99999999999034
 20
245.5
 30
0.0
  0
VERTEX
  8
0
 10
150.99999999999034
 20
248.5
 30
0.0
  0
VERTEX
  8
0
 10
150.99999999999034
 20
245.5
 30
0.0
  0
SEQEND
  8
0
  0
POLYLINE
  8
0
 62
0
 70
0
 66
1
 10
0.0
 20
0.0
 30
0.0
  0
VERTEX
  8
0
 10
173.99999999998886
 20
275.5
 30
0.0
  0
VERTEX
  8
0
 10
173.99999999998886
 20
278.5
 30
0.0
  0
VERTEX
  8
0
 10
173.99999999998886
 20
275.5
 30
0.0
  0
SEQEND
  8
0
  0
POLYLINE
  8
0
 62
0
 70
0
 66
1
 10
0.0
 20
0.0
 30
0.0
  0
VERTEX
  8
0
 10
173.99999999998886
 20
245.5
 30
0.0
  0
VERTEX
  8
0
 10
173.99999999998886
 20
248.5
 30
0.0
  0
VERTEX
  8
0
 10
173.99999999998886
 20
245.5
 30
0.0
  0
SEQEND
  8
0
  0
POLYLINE
  8
0
 62
0
 70
0
 66
1
 10
0.0
 20
0.0
 30
0.0
  0
VERTEX
  8
0
 10
173.99999999998886
 20
12.5
 30
0.0
  0
VERTEX
  8
0
 10
173.99999999998886
 20
15.5
 30
0.0
  0
VERTEX
  8
0
 10
173.99999999998886
 20
12.5
 30
0.0
  0
SEQEND
  8
0
  0
POLYLINE
  8
0
 62
0
 70
0
 66
1
 10
0.0
 20
0.0
 30
0.0
  0
VERTEX
  8
0
 10
150.99999999999034
 20
12.5
 30
0.0
  0
VERTEX
  8
0
 10
150.99999999999034
 20
15.5
 30
0.0
  0
VERTEX
  8
0
 10
150.99999999999034
 20
12.5
 30
0.0
  0
SEQEND
  8
0
  0
ENDBLK
  0
ENDSEC
  0
SECTION
  2
ENTITIES
  0
INSERT
  2
SHAPE2DVIEW005
  8
0
 62
0
 10
0.0
 20
0.0
 30
0.0
  0
ENDSEC
  0
EOF
