  0
SECTION
  2
HEADER
  9
$ACADVER
  1
AC1009
  9
$INSBASE
 10
0.0
 20
0.0
 30
0.0
  9
$EXTMIN
 10
0.0
 20
0.0
 30
0.0
  9
$EXTMAX
 10
0.0
 20
0.0
 30
0.0
  0
ENDSEC
  0
SECTION
  2
TABLES
  0
TABLE
  2
VPORT
 70
0
  0
ENDTAB
  0
TABLE
  2
LTYPE
 70
1
  0
LTYPE
  2
CONTINUOUS
 70
0
  3
Solid line
 72
65
 73
0
 40
0.0
  0
ENDTAB
  0
TABLE
  2
LAYER
 70
1
  0
LAYER
  2
0
 70
64
 62
7
  6
continuous
  0
ENDTAB
  0
TABLE
  2
STYLE
 70
1
  0
STYLE
  2
STANDARD
 70
0
 40
0
 41
1.0
 50
0.0
 71
0
 42
1
 3
ARIAL.TTF
 4

  0
ENDTAB
  0
TABLE
  2
VIEW
 70
0
  0
ENDTAB
  0
ENDSEC
  0
SECTION
  2
BLOCKS
  0
BLOCK
  8
0
  2
SHAPE2DVIEW
 70
0
 10
0.0
 20
0.0
 30
0.0
  3
SHAPE2DVIEW
  0
LINE
  8
0
 62
0
 10
205.01157052281917
 20
-178.64199991647328
 30
0.0
 11
140.53028028840282
 21
-178.64199991647328
 31
0.0
  0
LINE
  8
0
 62
0
 10
205.01157052281917
 20
-178.64199991647328
 30
0.0
 11
205.01157052281928
 21
196.35800008352672
 31
0.0
  0
LINE
  8
0
 62
0
 10
140.5302802884028
 20
-178.64199991647328
 30
0.0
 11
140.5302802884028
 21
-173.64199991647328
 31
0.0
  0
LINE
  8
0
 62
0
 10
205.01157052281928
 20
196.3580000835269
 30
0.0
 11
5.011570522819284
 21
196.35800008352683
 31
0.0
  0
LINE
  8
0
 62
0
 10
140.5302802884028
 20
-173.64199991647328
 30
0.0
 11
65.90429177304219
 21
-173.64199991647325
 31
0.0
  0
LINE
  8
0
 62
0
 10
5.011570522819209
 20
196.35800008352683
 30
0.0
 11
5.011570522951024
 21
172.99999999999994
 31
0.0
  0
LINE
  8
0
 62
0
 10
65.90429177304216
 20
-173.64199991647328
 30
0.0
 11
65.90429177304216
 21
-178.64199991647328
 31
0.0
  0
LINE
  8
0
 62
0
 10
14.5
 20
173.0
 30
0.0
 11
5.011570522951104
 21
173.0
 31
0.0
  0
LINE
  8
0
 62
0
 10
65.90429177304216
 20
-178.64199991647328
 30
0.0
 11
5.011570522819099
 21
-178.64199991647325
 31
0.0
  0
LINE
  8
0
 62
0
 10
14.5
 20
175.0
 30
0.0
 11
14.5
 21
173.0
 31
0.0
  0
LINE
  8
0
 62
0
 10
5.0115705228190786
 20
-155.99999999999997
 30
0.0
 11
5.01157052281907
 21
-178.6419999164732
 31
0.0
  0
LINE
  8
0
 62
0
 10
17.0
 20
175.0
 30
0.0
 11
14.5
 21
175.0
 31
0.0
  0
LINE
  8
0
 62
0
 10
14.5
 20
-156.0
 30
0.0
 11
5.01157052281901
 21
-156.0
 31
0.0
  0
LINE
  8
0
 62
0
 10
17.0
 20
175.0
 30
0.0
 11
17.0
 21
173.0
 31
0.0
  0
LINE
  8
0
 62
0
 10
14.5
 20
-156.0
 30
0.0
 11
14.5
 21
-158.0
 31
0.0
  0
LINE
  8
0
 62
0
 10
30.0
 20
173.0
 30
0.0
 11
17.0
 21
173.0
 31
0.0
  0
LINE
  8
0
 62
0
 10
17.0
 20
-158.0
 30
0.0
 11
14.5
 21
-158.0
 31
0.0
  0
LINE
  8
0
 62
0
 10
30.0
 20
173.0
 30
0.0
 11
30.0
 21
170.0
 31
0.0
  0
LINE
  8
0
 62
0
 10
17.0
 20
-156.0
 30
0.0
 11
17.0
 21
-158.0
 31
0.0
  0
LINE
  8
0
 62
0
 10
30.0
 20
170.0
 30
0.0
 11
17.0
 21
170.0
 31
0.0
  0
LINE
  8
0
 62
0
 10
30.0
 20
-156.0
 30
0.0
 11
17.0
 21
-156.0
 31
0.0
  0
LINE
  8
0
 62
0
 10
17.0
 20
170.0
 30
0.0
 11
17.0
 21
168.0
 31
0.0
  0
LINE
  8
0
 62
0
 10
30.0
 20
-153.0
 30
0.0
 11
30.0
 21
-156.0
 31
0.0
  0
LINE
  8
0
 62
0
 10
17.0
 20
168.0
 30
0.0
 11
14.5
 21
168.0
 31
0.0
  0
LINE
  8
0
 62
0
 10
30.0
 20
-153.0
 30
0.0
 11
17.0
 21
-153.0
 31
0.0
  0
LINE
  8
0
 62
0
 10
14.5
 20
170.0
 30
0.0
 11
14.5
 21
168.0
 31
0.0
  0
LINE
  8
0
 62
0
 10
17.0
 20
-151.0
 30
0.0
 11
17.0
 21
-153.0
 31
0.0
  0
LINE
  8
0
 62
0
 10
14.5
 20
170.0
 30
0.0
 11
5.011570522968029
 21
170.0
 31
0.0
  0
LINE
  8
0
 62
0
 10
17.0
 20
-151.0
 30
0.0
 11
14.5
 21
-151.0
 31
0.0
  0
LINE
  8
0
 62
0
 10
5.011570522967953
 20
169.99999999999994
 30
0.0
 11
5.011570523242452
 21
121.35800008352683
 31
0.0
  0
LINE
  8
0
 62
0
 10
14.5
 20
-151.0
 30
0.0
 11
14.5
 21
-153.0
 31
0.0
  0
LINE
  8
0
 62
0
 10
5.011570523242452
 20
121.3580000835268
 30
0.0
 11
0.011570523242451891
 21
121.35800008349858
 31
0.0
  0
LINE
  8
0
 62
0
 10
14.5
 20
-153.0
 30
0.0
 11
5.011570522819014
 21
-153.0
 31
0.0
  0
LINE
  8
0
 62
0
 10
0.011570523242449227
 20
121.35800008349858
 30
0.0
 11
0.011570523560504474
 21
64.99999999999997
 31
0.0
  0
LINE
  8
0
 62
0
 10
5.011570522819098
 20
-103.64199991647322
 30
0.0
 11
5.011570522819079
 21
-152.99999999999997
 31
0.0
  0
LINE
  8
0
 62
0
 10
0.011570523560533
 20
65.0
 30
0.0
 11
5.0
 21
65.0
 31
0.0
  0
LINE
  8
0
 62
0
 10
0.01157052281909543
 20
-103.64199991647321
 30
0.0
 11
5.011570522819095
 21
-103.64199991647322
 31
0.0
  0
LINE
  8
0
 62
0
 10
5.0
 20
65.0
 30
0.0
 11
5.0
 21
62.0
 31
0.0
  0
LINE
  8
0
 62
0
 10
0.01157052281912002
 20
-49.0
 30
0.0
 11
0.01157052281909543
 21
-103.6419999164732
 31
0.0
  0
LINE
  8
0
 62
0
 10
0.011570523577463
 20
62.0
 30
0.0
 11
5.0
 21
62.0
 31
0.0
  0
LINE
  8
0
 62
0
 10
0.011570522819099
 20
-49.0
 30
0.0
 11
5.0
 21
-49.0
 31
0.0
  0
LINE
  8
0
 62
0
 10
0.011570523577434913
 20
61.99999999999997
 30
0.0
 11
0.011570523665710226
 21
46.35800008349858
 31
0.0
  0
LINE
  8
0
 62
0
 10
5.0
 20
-46.0
 30
0.0
 11
5.0
 21
-49.0
 31
0.0
  0
LINE
  8
0
 62
0
 10
0.011570523665709764
 20
46.358000083498546
 30
0.0
 11
5.011570522819142
 21
46.35800008352684
 31
0.0
  0
LINE
  8
0
 62
0
 10
0.011570522819101
 20
-46.0
 30
0.0
 11
5.0
 21
-46.0
 31
0.0
  0
LINE
  8
0
 62
0
 10
5.011570522819143
 20
46.35800008352684
 30
0.0
 11
5.01157052281914
 21
24.999999999999993
 31
0.0
  0
LINE
  8
0
 62
0
 10
0.011570522819129181
 20
-28.64199991647319
 30
0.0
 11
0.01157052281912137
 21
-46.0
 31
0.0
  0
LINE
  8
0
 62
0
 10
14.5
 20
25.0
 30
0.0
 11
5.011570522819149
 21
25.0
 31
0.0
  0
LINE
  8
0
 62
0
 10
5.011570522819132
 20
-28.641999916473196
 30
0.0
 11
0.011570522819131845
 21
-28.64199991647319
 31
0.0
  0
LINE
  8
0
 62
0
 10
14.5
 20
27.0
 30
0.0
 11
14.5
 21
25.0
 31
0.0
  0
LINE
  8
0
 62
0
 10
5.0115705228191345
 20
-10.000000000000007
 30
0.0
 11
5.011570522819131
 21
-28.64199991647316
 31
0.0
  0
LINE
  8
0
 62
0
 10
17.0
 20
27.0
 30
0.0
 11
14.5
 21
27.0
 31
0.0
  0
LINE
  8
0
 62
0
 10
14.5
 20
-10.0
 30
0.0
 11
5.011570522819127
 21
-10.0
 31
0.0
  0
LINE
  8
0
 62
0
 10
17.0
 20
27.0
 30
0.0
 11
17.0
 21
25.0
 31
0.0
  0
LINE
  8
0
 62
0
 10
14.5
 20
-10.0
 30
0.0
 11
14.5
 21
-12.0
 31
0.0
  0
LINE
  8
0
 62
0
 10
30.0
 20
25.0
 30
0.0
 11
17.0
 21
25.0
 31
0.0
  0
LINE
  8
0
 62
0
 10
17.0
 20
-12.0
 30
0.0
 11
14.5
 21
-12.0
 31
0.0
  0
LINE
  8
0
 62
0
 10
30.0
 20
25.0
 30
0.0
 11
30.0
 21
22.0
 31
0.0
  0
LINE
  8
0
 62
0
 10
17.0
 20
-10.0
 30
0.0
 11
17.0
 21
-12.0
 31
0.0
  0
LINE
  8
0
 62
0
 10
30.0
 20
22.0
 30
0.0
 11
17.0
 21
22.0
 31
0.0
  0
LINE
  8
0
 62
0
 10
30.0
 20
-10.0
 30
0.0
 11
17.0
 21
-10.0
 31
0.0
  0
LINE
  8
0
 62
0
 10
17.0
 20
22.0
 30
0.0
 11
17.0
 21
20.0
 31
0.0
  0
LINE
  8
0
 62
0
 10
30.0
 20
-7.0
 30
0.0
 11
30.0
 21
-10.0
 31
0.0
  0
LINE
  8
0
 62
0
 10
17.0
 20
20.0
 30
0.0
 11
14.5
 21
20.0
 31
0.0
  0
LINE
  8
0
 62
0
 10
30.0
 20
-7.0
 30
0.0
 11
17.0
 21
-7.0
 31
0.0
  0
LINE
  8
0
 62
0
 10
14.5
 20
22.0
 30
0.0
 11
14.5
 21
20.0
 31
0.0
  0
LINE
  8
0
 62
0
 10
17.0
 20
-5.0
 30
0.0
 11
17.0
 21
-7.0
 31
0.0
  0
LINE
  8
0
 62
0
 10
14.5
 20
22.0
 30
0.0
 11
5.011570522819149
 21
22.0
 31
0.0
  0
LINE
  8
0
 62
0
 10
17.0
 20
-5.0
 30
0.0
 11
14.5
 21
-5.0
 31
0.0
  0
LINE
  8
0
 62
0
 10
5.01157052281914
 20
21.999999999999993
 30
0.0
 11
5.0115705228191345
 21
-7.000000000000007
 31
0.0
  0
LINE
  8
0
 62
0
 10
14.5
 20
-5.0
 30
0.0
 11
14.5
 21
-7.0
 31
0.0
  0
LINE
  8
0
 62
0
 10
14.5
 20
-7.0
 30
0.0
 11
5.011570522819131
 21
-7.0
 31
0.0
  0
CIRCLE
  8
0
 62
0
 10
25.0
 20
112.5
 30
0.0
 40
1.5
  0
ARC
  8
0
 62
0
 10
11.500000000000002
 20
-104.75
 30
0.0
 40
1.5
 50
-180.0
 51
-9.050579529706848
  0
ARC
  8
0
 62
0
 10
11.500000000000002
 20
-104.75
 30
0.0
 40
1.5
 50
100.92896142117786
 51
-180.0
  0
ARC
  8
0
 62
0
 10
19.0
 20
-97.0
 30
0.0
 40
10.0
 50
-127.00376641308802
 51
126.86989764584402
  0
ARC
  8
0
 62
0
 10
19.0
 20
-97.0
 30
0.0
 40
10.0
 50
-180.0
 51
-141.11785169544086
  0
ARC
  8
0
 62
0
 10
11.500000000000002
 20
-89.0
 30
0.0
 40
1.5
 50
-0.0
 51
-180.0
  0
ARC
  8
0
 62
0
 10
19.0
 20
-97.0
 30
0.0
 40
10.0
 50
139.4348818221668
 51
-180.0
  0
ARC
  8
0
 62
0
 10
11.500000000000002
 20
-89.0
 30
0.0
 40
1.5
 50
-180.0
 51
-93.6952205319892
  0
CIRCLE
  8
0
 62
0
 10
25.0
 20
-81.5
 30
0.0
 40
1.5
  0
CIRCLE
  8
0
 62
0
 10
25.25
 20
143.5
 30
0.0
 40
1.5
  0
ARC
  8
0
 62
0
 10
11.750000000000002
 20
120.25
 30
0.0
 40
1.5
 50
-180.0
 51
-15.237072693601808
  0
ARC
  8
0
 62
0
 10
11.750000000000002
 20
120.25
 30
0.0
 40
1.5
 50
109.05537755959469
 51
-180.0
  0
ARC
  8
0
 62
0
 10
19.0
 20
128.0
 30
0.0
 40
10.0
 50
-125.46974651930468
 51
126.86989764584402
  0
ARC
  8
0
 62
0
 10
19.0
 20
128.0
 30
0.0
 40
10.0
 50
-180.0
 51
-140.71194861470255
  0
ARC
  8
0
 62
0
 10
11.500000000000002
 20
136.0
 30
0.0
 40
1.5
 50
-0.0
 51
-180.0
  0
ARC
  8
0
 62
0
 10
19.0
 20
128.0
 30
0.0
 40
10.0
 50
139.43488182216674
 51
-180.0
  0
ARC
  8
0
 62
0
 10
11.500000000000002
 20
136.0
 30
0.0
 40
1.5
 50
-180.0
 51
-93.69522053198929
  0
CIRCLE
  8
0
 62
0
 10
25.0
 20
-112.5
 30
0.0
 40
1.5
  0
CIRCLE
  8
0
 62
0
 10
38.5
 20
120.5
 30
0.0
 40
1.5
  0
CIRCLE
  8
0
 62
0
 10
38.5
 20
-105.5
 30
0.0
 40
1.5
  0
CIRCLE
  8
0
 62
0
 10
38.5
 20
-89.0
 30
0.0
 40
1.5
  0
CIRCLE
  8
0
 62
0
 10
38.5
 20
136.0
 30
0.0
 40
1.5
  0
LINE
  8
0
 62
0
 10
67.0
 20
29.38534417597243
 30
0.0
 11
67.0
 21
29.38427685473138
 31
0.0
  0
LINE
  8
0
 62
0
 10
67.0
 20
29.38427685473138
 30
0.0
 11
72.0
 21
29.38427685473138
 31
0.0
  0
LINE
  8
0
 62
0
 10
72.0
 20
29.38534417597243
 30
0.0
 11
72.0
 21
29.38427685473138
 31
0.0
  0
LINE
  8
0
 62
0
 10
72.0
 20
56.36521389636408
 30
0.0
 11
72.0
 21
29.38534417597243
 31
0.0
  0
LINE
  8
0
 62
0
 10
72.0
 20
94.61379481668484
 30
0.0
 11
72.0
 21
56.36521389636408
 31
0.0
  0
LINE
  8
0
 62
0
 10
72.0
 20
94.6137948166842
 30
0.0
 11
67.0
 21
94.61379481668419
 31
0.0
  0
LINE
  8
0
 62
0
 10
67.0
 20
94.61379481668483
 30
0.0
 11
67.0
 21
56.36521389636343
 31
0.0
  0
LINE
  8
0
 62
0
 10
67.0
 20
56.36521389636343
 30
0.0
 11
67.0
 21
29.38534417597243
 31
0.0
  0
LINE
  8
0
 62
0
 10
138.89439400000012
 20
193.72218300000011
 30
0.0
 11
138.89439400000012
 21
189.1793060000001
 31
0.0
  0
LINE
  8
0
 62
0
 10
65.5593720000001
 20
193.7221830000001
 30
0.0
 11
138.8943940000001
 21
193.7221830000001
 31
0.0
  0
LINE
  8
0
 62
0
 10
138.89439400000012
 20
189.1793060000001
 30
0.0
 11
65.55937200000011
 21
189.1793060000001
 31
0.0
  0
LINE
  8
0
 62
0
 10
65.55937200000008
 20
189.17930600000008
 30
0.0
 11
65.55937200000008
 21
193.7221830000001
 31
0.0
  0
ENDBLK
  0
ENDSEC
  0
SECTION
  2
ENTITIES
  0
INSERT
  2
SHAPE2DVIEW
  8
0
 62
0
 10
0.0
 20
0.0
 30
0.0
  0
ENDSEC
  0
EOF
