  0
SECTION
  2
HEADER
  9
$ACADVER
  1
AC1009
  9
$INSBASE
 10
0.0
 20
0.0
 30
0.0
  9
$EXTMIN
 10
0.0
 20
0.0
 30
0.0
  9
$EXTMAX
 10
0.0
 20
0.0
 30
0.0
  0
ENDSEC
  0
SECTION
  2
TABLES
  0
TABLE
  2
VPORT
 70
0
  0
ENDTAB
  0
TABLE
  2
LTYPE
 70
1
  0
LTYPE
  2
CONTINUOUS
 70
0
  3
Solid line
 72
65
 73
0
 40
0.0
  0
ENDTAB
  0
TABLE
  2
LAYER
 70
1
  0
LAYER
  2
0
 70
64
 62
7
  6
continuous
  0
ENDTAB
  0
TABLE
  2
STYLE
 70
1
  0
STYLE
  2
STANDARD
 70
0
 40
0
 41
1.0
 50
0.0
 71
0
 42
1
 3
ARIAL.TTF
 4

  0
ENDTAB
  0
TABLE
  2
VIEW
 70
0
  0
ENDTAB
  0
ENDSEC
  0
SECTION
  2
BLOCKS
  0
BLOCK
  8
0
  2
SHAPE2DVIEW002
 70
0
 10
0.0
 20
0.0
 30
0.0
  3
SHAPE2DVIEW002
  0
LINE
  8
0
 62
0
 10
-205.01157052281917
 20
-178.64199991647328
 30
0.0
 11
-140.53028028840282
 21
-178.64199991647328
 31
0.0
  0
LINE
  8
0
 62
0
 10
-205.01157052281917
 20
-178.64199991647328
 30
0.0
 11
-205.01157052281928
 21
196.35800008352672
 31
0.0
  0
LINE
  8
0
 62
0
 10
-140.5302802884028
 20
-178.64199991647328
 30
0.0
 11
-140.5302802884028
 21
-173.64199991647328
 31
0.0
  0
LINE
  8
0
 62
0
 10
-205.01157052281928
 20
196.3580000835269
 30
0.0
 11
-5.011570522819284
 21
196.35800008352683
 31
0.0
  0
LINE
  8
0
 62
0
 10
-140.5302802884028
 20
-173.64199991647328
 30
0.0
 11
-65.90429177304219
 21
-173.64199991647325
 31
0.0
  0
LINE
  8
0
 62
0
 10
-5.01157052281921
 20
196.35800008352683
 30
0.0
 11
-5.011570522951025
 21
172.99999999999994
 31
0.0
  0
LINE
  8
0
 62
0
 10
-65.90429177304216
 20
-173.64199991647328
 30
0.0
 11
-65.90429177304216
 21
-178.64199991647328
 31
0.0
  0
LINE
  8
0
 62
0
 10
-14.5
 20
173.0
 30
0.0
 11
-5.011570522951104
 21
173.0
 31
0.0
  0
LINE
  8
0
 62
0
 10
-65.90429177304216
 20
-178.64199991647328
 30
0.0
 11
-5.011570522819099
 21
-178.64199991647325
 31
0.0
  0
LINE
  8
0
 62
0
 10
-14.5
 20
175.0
 30
0.0
 11
-14.5
 21
173.0
 31
0.0
  0
LINE
  8
0
 62
0
 10
-5.011570522819079
 20
-155.99999999999997
 30
0.0
 11
-5.011570522819071
 21
-178.6419999164732
 31
0.0
  0
LINE
  8
0
 62
0
 10
-17.0
 20
175.0
 30
0.0
 11
-14.5
 21
175.0
 31
0.0
  0
LINE
  8
0
 62
0
 10
-14.5
 20
-156.0
 30
0.0
 11
-5.01157052281901
 21
-156.0
 31
0.0
  0
LINE
  8
0
 62
0
 10
-17.0
 20
175.0
 30
0.0
 11
-17.0
 21
173.0
 31
0.0
  0
LINE
  8
0
 62
0
 10
-14.5
 20
-156.0
 30
0.0
 11
-14.5
 21
-158.0
 31
0.0
  0
LINE
  8
0
 62
0
 10
-30.0
 20
173.0
 30
0.0
 11
-17.0
 21
173.0
 31
0.0
  0
LINE
  8
0
 62
0
 10
-17.0
 20
-158.0
 30
0.0
 11
-14.5
 21
-158.0
 31
0.0
  0
LINE
  8
0
 62
0
 10
-30.0
 20
173.0
 30
0.0
 11
-30.0
 21
170.0
 31
0.0
  0
LINE
  8
0
 62
0
 10
-17.0
 20
-156.0
 30
0.0
 11
-17.0
 21
-158.0
 31
0.0
  0
LINE
  8
0
 62
0
 10
-30.0
 20
170.0
 30
0.0
 11
-17.0
 21
170.0
 31
0.0
  0
LINE
  8
0
 62
0
 10
-30.0
 20
-156.0
 30
0.0
 11
-17.0
 21
-156.0
 31
0.0
  0
LINE
  8
0
 62
0
 10
-17.0
 20
170.0
 30
0.0
 11
-17.0
 21
168.0
 31
0.0
  0
LINE
  8
0
 62
0
 10
-30.0
 20
-153.0
 30
0.0
 11
-30.0
 21
-156.0
 31
0.0
  0
LINE
  8
0
 62
0
 10
-17.0
 20
168.0
 30
0.0
 11
-14.5
 21
168.0
 31
0.0
  0
LINE
  8
0
 62
0
 10
-30.0
 20
-153.0
 30
0.0
 11
-17.0
 21
-153.0
 31
0.0
  0
LINE
  8
0
 62
0
 10
-14.5
 20
170.0
 30
0.0
 11
-14.5
 21
168.0
 31
0.0
  0
LINE
  8
0
 62
0
 10
-17.0
 20
-151.0
 30
0.0
 11
-17.0
 21
-153.0
 31
0.0
  0
LINE
  8
0
 62
0
 10
-14.5
 20
170.0
 30
0.0
 11
-5.011570522968032
 21
170.0
 31
0.0
  0
LINE
  8
0
 62
0
 10
-17.0
 20
-151.0
 30
0.0
 11
-14.5
 21
-151.0
 31
0.0
  0
LINE
  8
0
 62
0
 10
-5.011570522967954
 20
169.99999999999994
 30
0.0
 11
-5.011570523242453
 21
121.35800008352683
 31
0.0
  0
LINE
  8
0
 62
0
 10
-14.5
 20
-151.0
 30
0.0
 11
-14.5
 21
-153.0
 31
0.0
  0
LINE
  8
0
 62
0
 10
-5.011570523242453
 20
121.3580000835268
 30
0.0
 11
-0.01157052324245278
 21
121.35800008349858
 31
0.0
  0
LINE
  8
0
 62
0
 10
-14.5
 20
-153.0
 30
0.0
 11
-5.011570522819014
 21
-153.0
 31
0.0
  0
LINE
  8
0
 62
0
 10
-0.01157052324244968
 20
121.35800008349858
 30
0.0
 11
-0.011570523560504926
 21
64.99999999999997
 31
0.0
  0
LINE
  8
0
 62
0
 10
-5.011570522819099
 20
-103.64199991647322
 30
0.0
 11
-5.01157052281908
 21
-152.99999999999997
 31
0.0
  0
LINE
  8
0
 62
0
 10
-0.011570523560534
 20
65.0
 30
0.0
 11
-5.0
 21
65.0
 31
0.0
  0
LINE
  8
0
 62
0
 10
-0.01157052281909659
 20
-103.64199991647321
 30
0.0
 11
-5.011570522819096
 21
-103.64199991647322
 31
0.0
  0
LINE
  8
0
 62
0
 10
-5.0
 20
65.0
 30
0.0
 11
-5.0
 21
62.0
 31
0.0
  0
LINE
  8
0
 62
0
 10
-0.01157052281912111
 20
-48.99999999999999
 30
0.0
 11
-0.01157052281909652
 21
-103.6419999164732
 31
0.0
  0
LINE
  8
0
 62
0
 10
-0.011570523577463
 20
62.0
 30
0.0
 11
-5.0
 21
62.0
 31
0.0
  0
LINE
  8
0
 62
0
 10
-0.011570522819099
 20
-49.0
 30
0.0
 11
-5.0
 21
-49.0
 31
0.0
  0
LINE
  8
0
 62
0
 10
-0.011570523577435366
 20
61.99999999999997
 30
0.0
 11
-0.011570523665710679
 21
46.35800008349858
 31
0.0
  0
LINE
  8
0
 62
0
 10
-5.0
 20
-46.0
 30
0.0
 11
-5.0
 21
-49.0
 31
0.0
  0
LINE
  8
0
 62
0
 10
-0.01157052366571045
 20
46.358000083498546
 30
0.0
 11
-5.0115705228191425
 21
46.35800008352684
 31
0.0
  0
LINE
  8
0
 62
0
 10
-0.011570522819102
 20
-46.0
 30
0.0
 11
-5.0
 21
-46.0
 31
0.0
  0
LINE
  8
0
 62
0
 10
-5.011570522819144
 20
46.35800008352684
 30
0.0
 11
-5.011570522819141
 21
24.999999999999993
 31
0.0
  0
LINE
  8
0
 62
0
 10
-0.01157052281913027
 20
-28.64199991647319
 30
0.0
 11
-0.011570522819122459
 21
-45.99999999999999
 31
0.0
  0
LINE
  8
0
 62
0
 10
-14.5
 20
25.0
 30
0.0
 11
-5.011570522819152
 21
25.0
 31
0.0
  0
LINE
  8
0
 62
0
 10
-5.011570522819133
 20
-28.641999916473196
 30
0.0
 11
-0.011570522819132734
 21
-28.64199991647319
 31
0.0
  0
LINE
  8
0
 62
0
 10
-14.5
 20
27.0
 30
0.0
 11
-14.5
 21
25.0
 31
0.0
  0
LINE
  8
0
 62
0
 10
-5.011570522819135
 20
-10.000000000000007
 30
0.0
 11
-5.011570522819132
 21
-28.64199991647316
 31
0.0
  0
LINE
  8
0
 62
0
 10
-17.0
 20
27.0
 30
0.0
 11
-14.5
 21
27.0
 31
0.0
  0
LINE
  8
0
 62
0
 10
-14.5
 20
-10.0
 30
0.0
 11
-5.011570522819131
 21
-10.0
 31
0.0
  0
LINE
  8
0
 62
0
 10
-17.0
 20
27.0
 30
0.0
 11
-17.0
 21
25.0
 31
0.0
  0
LINE
  8
0
 62
0
 10
-14.5
 20
-10.0
 30
0.0
 11
-14.5
 21
-12.0
 31
0.0
  0
LINE
  8
0
 62
0
 10
-30.0
 20
25.0
 30
0.0
 11
-17.0
 21
25.0
 31
0.0
  0
LINE
  8
0
 62
0
 10
-17.0
 20
-12.0
 30
0.0
 11
-14.5
 21
-12.0
 31
0.0
  0
LINE
  8
0
 62
0
 10
-30.0
 20
25.0
 30
0.0
 11
-30.0
 21
22.0
 31
0.0
  0
LINE
  8
0
 62
0
 10
-17.0
 20
-10.0
 30
0.0
 11
-17.0
 21
-12.0
 31
0.0
  0
LINE
  8
0
 62
0
 10
-30.0
 20
22.0
 30
0.0
 11
-17.0
 21
22.0
 31
0.0
  0
LINE
  8
0
 62
0
 10
-30.0
 20
-10.0
 30
0.0
 11
-17.0
 21
-10.0
 31
0.0
  0
LINE
  8
0
 62
0
 10
-17.0
 20
22.0
 30
0.0
 11
-17.0
 21
20.0
 31
0.0
  0
LINE
  8
0
 62
0
 10
-30.0
 20
-7.0
 30
0.0
 11
-30.0
 21
-10.0
 31
0.0
  0
LINE
  8
0
 62
0
 10
-17.0
 20
20.0
 30
0.0
 11
-14.5
 21
20.0
 31
0.0
  0
LINE
  8
0
 62
0
 10
-30.0
 20
-7.0
 30
0.0
 11
-17.0
 21
-7.0
 31
0.0
  0
LINE
  8
0
 62
0
 10
-14.5
 20
22.0
 30
0.0
 11
-14.5
 21
20.0
 31
0.0
  0
LINE
  8
0
 62
0
 10
-17.0
 20
-5.0
 30
0.0
 11
-17.0
 21
-7.0
 31
0.0
  0
LINE
  8
0
 62
0
 10
-14.5
 20
22.0
 30
0.0
 11
-5.011570522819152
 21
22.0
 31
0.0
  0
LINE
  8
0
 62
0
 10
-17.0
 20
-5.0
 30
0.0
 11
-14.5
 21
-5.0
 31
0.0
  0
LINE
  8
0
 62
0
 10
-5.011570522819141
 20
21.999999999999993
 30
0.0
 11
-5.011570522819135
 21
-7.000000000000007
 31
0.0
  0
LINE
  8
0
 62
0
 10
-14.5
 20
-5.0
 30
0.0
 11
-14.5
 21
-7.0
 31
0.0
  0
LINE
  8
0
 62
0
 10
-14.5
 20
-7.0
 30
0.0
 11
-5.0115705228191345
 21
-7.0
 31
0.0
  0
CIRCLE
  8
0
 62
0
 10
-38.5
 20
-105.5
 30
0.0
 40
1.5
  0
CIRCLE
  8
0
 62
0
 10
-38.5
 20
-89.0
 30
0.0
 40
1.5
  0
CIRCLE
  8
0
 62
0
 10
-25.0
 20
-81.5
 30
0.0
 40
1.5
  0
ARC
  8
0
 62
0
 10
-11.5
 20
-104.75
 30
0.0
 40
1.5
 50
-170.94942047029315
 51
-0.0
  0
ARC
  8
0
 62
0
 10
-11.5
 20
-104.75
 30
0.0
 40
1.5
 50
-0.0
 51
79.07103857882215
  0
ARC
  8
0
 62
0
 10
-19.0
 20
-97.0
 30
0.0
 40
10.0
 50
53.130102354155994
 51
-52.996233586912
  0
ARC
  8
0
 62
0
 10
-19.0
 20
-97.0
 30
0.0
 40
10.0
 50
-38.88214830455914
 51
-0.0
  0
ARC
  8
0
 62
0
 10
-11.5
 20
-89.0
 30
0.0
 40
1.5
 50
-0.0
 51
-180.0
  0
ARC
  8
0
 62
0
 10
-19.0
 20
-97.0
 30
0.0
 40
10.0
 50
-0.0
 51
40.565118177833206
  0
ARC
  8
0
 62
0
 10
-11.5
 20
-89.0
 30
0.0
 40
1.5
 50
-86.30477946801082
 51
-0.0
  0
CIRCLE
  8
0
 62
0
 10
-25.25
 20
143.5
 30
0.0
 40
1.5
  0
ARC
  8
0
 62
0
 10
-11.75
 20
120.25
 30
0.0
 40
1.5
 50
-164.7629273063982
 51
-0.0
  0
ARC
  8
0
 62
0
 10
-11.75
 20
120.25
 30
0.0
 40
1.5
 50
-0.0
 51
70.94462244040533
  0
ARC
  8
0
 62
0
 10
-19.0
 20
128.0
 30
0.0
 40
10.0
 50
53.130102354155994
 51
-54.53025348069531
  0
ARC
  8
0
 62
0
 10
-19.0
 20
128.0
 30
0.0
 40
10.0
 50
-39.28805138529746
 51
-0.0
  0
ARC
  8
0
 62
0
 10
-11.5
 20
136.0
 30
0.0
 40
1.5
 50
-0.0
 51
-180.0
  0
ARC
  8
0
 62
0
 10
-19.0
 20
128.0
 30
0.0
 40
10.0
 50
-0.0
 51
40.565118177833284
  0
ARC
  8
0
 62
0
 10
-11.5
 20
136.0
 30
0.0
 40
1.5
 50
-86.30477946801071
 51
-0.0
  0
CIRCLE
  8
0
 62
0
 10
-38.5
 20
120.5
 30
0.0
 40
1.5
  0
CIRCLE
  8
0
 62
0
 10
-38.5
 20
136.0
 30
0.0
 40
1.5
  0
CIRCLE
  8
0
 62
0
 10
-25.0
 20
112.5
 30
0.0
 40
1.5
  0
CIRCLE
  8
0
 62
0
 10
-25.0
 20
-112.5
 30
0.0
 40
1.5
  0
LINE
  8
0
 62
0
 10
-72.0
 20
63.01034329118801
 30
0.0
 11
-67.0
 21
63.01034329118801
 31
0.0
  0
LINE
  8
0
 62
0
 10
-67.0
 20
63.010343291188
 30
0.0
 11
-67.0
 21
-25.196123439377878
 31
0.0
  0
LINE
  8
0
 62
0
 10
-67.0
 20
-25.196123439377878
 30
0.0
 11
-72.0
 21
-25.196123439377878
 31
0.0
  0
LINE
  8
0
 62
0
 10
-72.0
 20
63.010343291188
 30
0.0
 11
-72.0
 21
-25.196123439377878
 31
0.0
  0
LINE
  8
0
 62
0
 10
-138.89439400000012
 20
193.72218300000011
 30
0.0
 11
-138.89439400000012
 21
189.1793060000001
 31
0.0
  0
LINE
  8
0
 62
0
 10
-65.5593720000001
 20
193.7221830000001
 30
0.0
 11
-138.8943940000001
 21
193.7221830000001
 31
0.0
  0
LINE
  8
0
 62
0
 10
-138.89439400000012
 20
189.1793060000001
 30
0.0
 11
-65.55937200000011
 21
189.1793060000001
 31
0.0
  0
LINE
  8
0
 62
0
 10
-65.55937200000008
 20
189.17930600000008
 30
0.0
 11
-65.55937200000008
 21
193.7221830000001
 31
0.0
  0
LINE
  8
0
 62
0
 10
-67.0
 20
63.00679772936115
 30
0.0
 11
-72.0
 21
63.00679772936115
 31
0.0
  0
ENDBLK
  0
ENDSEC
  0
SECTION
  2
ENTITIES
  0
INSERT
  2
SHAPE2DVIEW002
  8
0
 62
0
 10
0.0
 20
0.0
 30
0.0
  0
ENDSEC
  0
EOF
